<svg width="24" height="24" viewBox="0 0 24 24" fill="none" xmlns="http://www.w3.org/2000/svg">
<mask id="mask0_3151_2185" style="mask-type:alpha" maskUnits="userSpaceOnUse" x="0" y="0" width="24" height="24">
<rect width="24" height="24" fill="#D9D9D9"/>
</mask>
<g mask="url(#mask0_3151_2185)">
<path d="M5.17148 20.978C4.57615 20.978 4.06898 20.7685 3.64998 20.3495C3.23098 19.9305 3.02148 19.4233 3.02148 18.828V5.17148C3.02148 4.57615 3.23098 4.06898 3.64998 3.64998C4.06898 3.23098 4.57615 3.02148 5.17148 3.02148H11.9247V5.17148H5.17148V18.828H18.828V12.0747H20.978V18.828C20.978 19.4233 20.7685 19.9305 20.3495 20.3495C19.9305 20.7685 19.4233 20.978 18.828 20.978H5.17148ZM9.92248 15.5747L8.42473 14.077L17.3302 5.17148H13.7997V3.02148H20.978V10.1997H18.828V6.66924L9.92248 15.5747Z" fill="#1A73E8"/>
</g>
</svg>
