<svg width="24" height="24" viewBox="0 0 24 24" fill="none" xmlns="http://www.w3.org/2000/svg">
<mask id="mask0_3149_1945" style="mask-type:alpha" maskUnits="userSpaceOnUse" x="0" y="0" width="24" height="24">
<rect width="24" height="24" fill="#D9D9D9"/>
</mask>
<g mask="url(#mask0_3149_1945)">
<path d="M19.4631 21.0147L13.2218 14.7727C12.7338 15.1569 12.17 15.4554 11.5303 15.6683C10.8907 15.8811 10.2118 15.9875 9.49359 15.9875C7.68893 15.9875 6.16001 15.3614 4.90684 14.1093C3.65384 12.8571 3.02734 11.3294 3.02734 9.52625C3.02734 7.72292 3.65334 6.19475 4.90534 4.94175C6.15751 3.68892 7.68526 3.0625 9.48859 3.0625C11.2919 3.0625 12.82 3.68908 14.0728 4.94225C15.3258 6.19525 15.9523 7.72417 15.9523 9.529C15.9523 10.251 15.8438 10.9319 15.6268 11.5717C15.4097 12.2116 15.1133 12.7733 14.7376 13.257L20.9853 19.4983L19.4631 21.0147ZM9.48984 13.8375C10.6955 13.8375 11.7157 13.4202 12.5503 12.5855C13.385 11.751 13.8023 10.7308 13.8023 9.525C13.8023 8.31917 13.385 7.299 12.5503 6.4645C11.7157 5.62983 10.6955 5.2125 9.48984 5.2125C8.28401 5.2125 7.26376 5.62983 6.42909 6.4645C5.59459 7.299 5.17734 8.31917 5.17734 9.525C5.17734 10.7308 5.59459 11.751 6.42909 12.5855C7.26376 13.4202 8.28401 13.8375 9.48984 13.8375Z" fill="white"/>
</g>
</svg>
