<svg width="167" height="40" viewBox="0 0 167 40" fill="none" xmlns="http://www.w3.org/2000/svg">
<path d="M16.88 18.192C16.624 17.7227 16.272 17.3653 15.824 17.12C15.376 16.8747 14.8533 16.752 14.256 16.752C13.5947 16.752 13.008 16.9013 12.496 17.2C11.984 17.4987 11.584 17.9253 11.296 18.48C11.008 19.0347 10.864 19.6747 10.864 20.4C10.864 21.1467 11.008 21.7973 11.296 22.352C11.5947 22.9067 12.0053 23.3333 12.528 23.632C13.0507 23.9307 13.6587 24.08 14.352 24.08C15.2053 24.08 15.904 23.856 16.448 23.408C16.992 22.9493 17.3493 22.3147 17.52 21.504H13.68V19.792H19.728V21.744C19.5787 22.5227 19.2587 23.2427 18.768 23.904C18.2773 24.5653 17.6427 25.0987 16.864 25.504C16.096 25.8987 15.232 26.096 14.272 26.096C13.1947 26.096 12.2187 25.856 11.344 25.376C10.48 24.8853 9.79733 24.208 9.296 23.344C8.80533 22.48 8.56 21.4987 8.56 20.4C8.56 19.3013 8.80533 18.32 9.296 17.456C9.79733 16.5813 10.48 15.904 11.344 15.424C12.2187 14.9333 13.1893 14.688 14.256 14.688C15.5147 14.688 16.608 14.9973 17.536 15.616C18.464 16.224 19.104 17.0827 19.456 18.192H16.88ZM25.3213 26.144C24.4679 26.144 23.6999 25.9573 23.0173 25.584C22.3346 25.2 21.7959 24.6613 21.4013 23.968C21.0173 23.2747 20.8253 22.4747 20.8253 21.568C20.8253 20.6613 21.0226 19.8613 21.4173 19.168C21.8226 18.4747 22.3719 17.9413 23.0653 17.568C23.7586 17.184 24.5319 16.992 25.3853 16.992C26.2386 16.992 27.0119 17.184 27.7053 17.568C28.3986 17.9413 28.9426 18.4747 29.3373 19.168C29.7426 19.8613 29.9453 20.6613 29.9453 21.568C29.9453 22.4747 29.7373 23.2747 29.3212 23.968C28.9159 24.6613 28.3613 25.2 27.6573 25.584C26.9639 25.9573 26.1853 26.144 25.3213 26.144ZM25.3213 24.192C25.7266 24.192 26.1053 24.096 26.4573 23.904C26.8199 23.7013 27.1079 23.4027 27.3213 23.008C27.5346 22.6133 27.6413 22.1333 27.6413 21.568C27.6413 20.7253 27.4173 20.08 26.9693 19.632C26.5319 19.1733 25.9933 18.944 25.3533 18.944C24.7133 18.944 24.1746 19.1733 23.7373 19.632C23.3106 20.08 23.0973 20.7253 23.0973 21.568C23.0973 22.4107 23.3053 23.0613 23.7213 23.52C24.1479 23.968 24.6813 24.192 25.3213 24.192ZM35.5244 26.144C34.671 26.144 33.903 25.9573 33.2204 25.584C32.5377 25.2 31.999 24.6613 31.6044 23.968C31.2204 23.2747 31.0284 22.4747 31.0284 21.568C31.0284 20.6613 31.2257 19.8613 31.6204 19.168C32.0257 18.4747 32.575 17.9413 33.2684 17.568C33.9617 17.184 34.735 16.992 35.5884 16.992C36.4417 16.992 37.215 17.184 37.9084 17.568C38.6017 17.9413 39.1457 18.4747 39.5404 19.168C39.9457 19.8613 40.1484 20.6613 40.1484 21.568C40.1484 22.4747 39.9404 23.2747 39.5244 23.968C39.119 24.6613 38.5644 25.2 37.8604 25.584C37.167 25.9573 36.3884 26.144 35.5244 26.144ZM35.5244 24.192C35.9297 24.192 36.3084 24.096 36.6604 23.904C37.023 23.7013 37.311 23.4027 37.5244 23.008C37.7377 22.6133 37.8444 22.1333 37.8444 21.568C37.8444 20.7253 37.6204 20.08 37.1724 19.632C36.735 19.1733 36.1964 18.944 35.5564 18.944C34.9164 18.944 34.3777 19.1733 33.9404 19.632C33.5137 20.08 33.3004 20.7253 33.3004 21.568C33.3004 22.4107 33.5084 23.0613 33.9244 23.52C34.351 23.968 34.8844 24.192 35.5244 24.192ZM45.2635 16.992C45.9248 16.992 46.5062 17.1253 47.0075 17.392C47.5088 17.648 47.9035 17.984 48.1915 18.4V17.136H50.4475V26.064C50.4475 26.8853 50.2822 27.616 49.9515 28.256C49.6208 28.9067 49.1248 29.4187 48.4635 29.792C47.8022 30.176 47.0022 30.368 46.0635 30.368C44.8048 30.368 43.7702 30.0747 42.9595 29.488C42.1595 28.9013 41.7062 28.1013 41.5995 27.088H43.8235C43.9408 27.4933 44.1915 27.8133 44.5755 28.048C44.9702 28.2933 45.4448 28.416 45.9995 28.416C46.6502 28.416 47.1782 28.2187 47.5835 27.824C47.9888 27.44 48.1915 26.8533 48.1915 26.064V24.688C47.9035 25.104 47.5035 25.4507 46.9915 25.728C46.4902 26.0053 45.9142 26.144 45.2635 26.144C44.5168 26.144 43.8342 25.952 43.2155 25.568C42.5968 25.184 42.1062 24.6453 41.7435 23.952C41.3915 23.248 41.2155 22.4427 41.2155 21.536C41.2155 20.64 41.3915 19.8453 41.7435 19.152C42.1062 18.4587 42.5915 17.9253 43.1995 17.552C43.8182 17.1787 44.5062 16.992 45.2635 16.992ZM48.1915 21.568C48.1915 21.024 48.0848 20.56 47.8715 20.176C47.6582 19.7813 47.3702 19.4827 47.0075 19.28C46.6448 19.0667 46.2555 18.96 45.8395 18.96C45.4235 18.96 45.0395 19.0613 44.6875 19.264C44.3355 19.4667 44.0475 19.7653 43.8235 20.16C43.6102 20.544 43.5035 21.0027 43.5035 21.536C43.5035 22.0693 43.6102 22.5387 43.8235 22.944C44.0475 23.3387 44.3355 23.6427 44.6875 23.856C45.0502 24.0693 45.4342 24.176 45.8395 24.176C46.2555 24.176 46.6448 24.0747 47.0075 23.872C47.3702 23.6587 47.6582 23.36 47.8715 22.976C48.0848 22.5813 48.1915 22.112 48.1915 21.568ZM54.8753 14.16V26H52.6353V14.16H54.8753ZM65.3284 21.376C65.3284 21.696 65.307 21.984 65.2644 22.24H58.7844C58.8377 22.88 59.0617 23.3813 59.4564 23.744C59.851 24.1067 60.3364 24.288 60.9124 24.288C61.7444 24.288 62.3364 23.9307 62.6884 23.216H65.1044C64.8484 24.0693 64.3577 24.7733 63.6324 25.328C62.907 25.872 62.0164 26.144 60.9604 26.144C60.107 26.144 59.339 25.9573 58.6564 25.584C57.9844 25.2 57.4564 24.6613 57.0724 23.968C56.699 23.2747 56.5124 22.4747 56.5124 21.568C56.5124 20.6507 56.699 19.8453 57.0724 19.152C57.4457 18.4587 57.9684 17.9253 58.6404 17.552C59.3124 17.1787 60.0857 16.992 60.9604 16.992C61.803 16.992 62.555 17.1733 63.2164 17.536C63.8884 17.8987 64.4057 18.416 64.7684 19.088C65.1417 19.7493 65.3284 20.512 65.3284 21.376ZM63.0084 20.736C62.9977 20.16 62.7897 19.7013 62.3844 19.36C61.979 19.008 61.483 18.832 60.8964 18.832C60.3417 18.832 59.8724 19.0027 59.4884 19.344C59.115 19.6747 58.8857 20.1387 58.8004 20.736H63.0084Z" fill="white"/>
<path d="M79.008 14.832C80.1813 14.832 81.2107 15.0613 82.096 15.52C82.992 15.9787 83.68 16.6347 84.16 17.488C84.6507 18.3307 84.896 19.312 84.896 20.432C84.896 21.552 84.6507 22.5333 84.16 23.376C83.68 24.208 82.992 24.8533 82.096 25.312C81.2107 25.7707 80.1813 26 79.008 26H75.104V14.832H79.008ZM78.928 24.096C80.1013 24.096 81.008 23.776 81.648 23.136C82.288 22.496 82.608 21.5947 82.608 20.432C82.608 19.2693 82.288 18.3627 81.648 17.712C81.008 17.0507 80.1013 16.72 78.928 16.72H77.344V24.096H78.928ZM94.8128 21.376C94.8128 21.696 94.7914 21.984 94.7488 22.24H88.2688C88.3221 22.88 88.5461 23.3813 88.9408 23.744C89.3354 24.1067 89.8208 24.288 90.3968 24.288C91.2288 24.288 91.8208 23.9307 92.1728 23.216H94.5888C94.3328 24.0693 93.8421 24.7733 93.1168 25.328C92.3914 25.872 91.5008 26.144 90.4448 26.144C89.5914 26.144 88.8234 25.9573 88.1408 25.584C87.4688 25.2 86.9408 24.6613 86.5568 23.968C86.1834 23.2747 85.9967 22.4747 85.9967 21.568C85.9967 20.6507 86.1834 19.8453 86.5568 19.152C86.9301 18.4587 87.4528 17.9253 88.1248 17.552C88.7968 17.1787 89.5701 16.992 90.4448 16.992C91.2874 16.992 92.0394 17.1733 92.7008 17.536C93.3728 17.8987 93.8901 18.416 94.2528 19.088C94.6261 19.7493 94.8128 20.512 94.8128 21.376ZM92.4928 20.736C92.4821 20.16 92.2741 19.7013 91.8688 19.36C91.4634 19.008 90.9674 18.832 90.3808 18.832C89.8261 18.832 89.3568 19.0027 88.9728 19.344C88.5994 19.6747 88.3701 20.1387 88.2848 20.736H92.4928ZM104.688 21.376C104.688 21.696 104.666 21.984 104.624 22.24H98.1438C98.1971 22.88 98.4211 23.3813 98.8158 23.744C99.2104 24.1067 99.6958 24.288 100.272 24.288C101.104 24.288 101.696 23.9307 102.048 23.216H104.464C104.208 24.0693 103.717 24.7733 102.992 25.328C102.266 25.872 101.376 26.144 100.32 26.144C99.4664 26.144 98.6984 25.9573 98.0158 25.584C97.3438 25.2 96.8158 24.6613 96.4318 23.968C96.0584 23.2747 95.8717 22.4747 95.8717 21.568C95.8717 20.6507 96.0584 19.8453 96.4318 19.152C96.8051 18.4587 97.3278 17.9253 97.9998 17.552C98.6718 17.1787 99.4451 16.992 100.32 16.992C101.162 16.992 101.914 17.1733 102.576 17.536C103.248 17.8987 103.765 18.416 104.128 19.088C104.501 19.7493 104.688 20.512 104.688 21.376ZM102.368 20.736C102.357 20.16 102.149 19.7013 101.744 19.36C101.338 19.008 100.842 18.832 100.256 18.832C99.7011 18.832 99.2318 19.0027 98.8478 19.344C98.4744 19.6747 98.2451 20.1387 98.1598 20.736H102.368ZM108.563 18.416C108.851 18.0107 109.245 17.6747 109.747 17.408C110.259 17.1307 110.84 16.992 111.491 16.992C112.248 16.992 112.931 17.1787 113.539 17.552C114.157 17.9253 114.643 18.4587 114.995 19.152C115.357 19.8347 115.539 20.6293 115.539 21.536C115.539 22.4427 115.357 23.248 114.995 23.952C114.643 24.6453 114.157 25.184 113.539 25.568C112.931 25.952 112.248 26.144 111.491 26.144C110.84 26.144 110.264 26.0107 109.763 25.744C109.272 25.4773 108.872 25.1413 108.563 24.736V30.224H106.323V17.136H108.563V18.416ZM113.251 21.536C113.251 21.0027 113.139 20.544 112.915 20.16C112.701 19.7653 112.413 19.4667 112.051 19.264C111.699 19.0613 111.315 18.96 110.899 18.96C110.493 18.96 110.109 19.0667 109.747 19.28C109.395 19.4827 109.107 19.7813 108.883 20.176C108.669 20.5707 108.563 21.0347 108.563 21.568C108.563 22.1013 108.669 22.5653 108.883 22.96C109.107 23.3547 109.395 23.6587 109.747 23.872C110.109 24.0747 110.493 24.176 110.899 24.176C111.315 24.176 111.699 24.0693 112.051 23.856C112.413 23.6427 112.701 23.3387 112.915 22.944C113.139 22.5493 113.251 22.08 113.251 21.536ZM128.175 17.008C129.263 17.008 130.137 17.344 130.799 18.016C131.471 18.6773 131.807 19.6053 131.807 20.8V26H129.567V21.104C129.567 20.4107 129.391 19.8827 129.039 19.52C128.687 19.1467 128.207 18.96 127.599 18.96C126.991 18.96 126.505 19.1467 126.143 19.52C125.791 19.8827 125.615 20.4107 125.615 21.104V26H123.375V21.104C123.375 20.4107 123.199 19.8827 122.847 19.52C122.495 19.1467 122.015 18.96 121.407 18.96C120.788 18.96 120.297 19.1467 119.935 19.52C119.583 19.8827 119.407 20.4107 119.407 21.104V26H117.167V17.136H119.407V18.208C119.695 17.8347 120.063 17.5413 120.511 17.328C120.969 17.1147 121.471 17.008 122.015 17.008C122.708 17.008 123.327 17.1573 123.871 17.456C124.415 17.744 124.836 18.16 125.135 18.704C125.423 18.192 125.839 17.7813 126.383 17.472C126.937 17.1627 127.535 17.008 128.175 17.008ZM135.068 16.08C134.673 16.08 134.343 15.9573 134.076 15.712C133.82 15.456 133.692 15.1413 133.692 14.768C133.692 14.3947 133.82 14.0853 134.076 13.84C134.343 13.584 134.673 13.456 135.068 13.456C135.463 13.456 135.788 13.584 136.044 13.84C136.311 14.0853 136.444 14.3947 136.444 14.768C136.444 15.1413 136.311 15.456 136.044 15.712C135.788 15.9573 135.463 16.08 135.068 16.08ZM136.172 17.136V26H133.932V17.136H136.172ZM143.297 17.008C144.353 17.008 145.207 17.344 145.857 18.016C146.508 18.6773 146.833 19.6053 146.833 20.8V26H144.593V21.104C144.593 20.4 144.417 19.8613 144.065 19.488C143.713 19.104 143.233 18.912 142.625 18.912C142.007 18.912 141.516 19.104 141.153 19.488C140.801 19.8613 140.625 20.4 140.625 21.104V26H138.385V17.136H140.625V18.24C140.924 17.856 141.303 17.5573 141.761 17.344C142.231 17.12 142.743 17.008 143.297 17.008ZM148.387 21.536C148.387 20.64 148.563 19.8453 148.915 19.152C149.278 18.4587 149.769 17.9253 150.387 17.552C151.006 17.1787 151.694 16.992 152.451 16.992C153.027 16.992 153.577 17.12 154.099 17.376C154.622 17.6213 155.038 17.952 155.347 18.368V14.16H157.619V26H155.347V24.688C155.07 25.1253 154.681 25.4773 154.179 25.744C153.678 26.0107 153.097 26.144 152.435 26.144C151.689 26.144 151.006 25.952 150.387 25.568C149.769 25.184 149.278 24.6453 148.915 23.952C148.563 23.248 148.387 22.4427 148.387 21.536ZM155.363 21.568C155.363 21.024 155.257 20.56 155.043 20.176C154.83 19.7813 154.542 19.4827 154.179 19.28C153.817 19.0667 153.427 18.96 153.011 18.96C152.595 18.96 152.211 19.0613 151.859 19.264C151.507 19.4667 151.219 19.7653 150.995 20.16C150.782 20.544 150.675 21.0027 150.675 21.536C150.675 22.0693 150.782 22.5387 150.995 22.944C151.219 23.3387 151.507 23.6427 151.859 23.856C152.222 24.0693 152.606 24.176 153.011 24.176C153.427 24.176 153.817 24.0747 154.179 23.872C154.542 23.6587 154.83 23.36 155.043 22.976C155.257 22.5813 155.363 22.112 155.363 21.568Z" fill="white"/>
</svg>
